<svg id="Calque_1" data-name="Calque 1" xmlns="http://www.w3.org/2000/svg" viewBox="0 0 291 291.07"><defs><style>.cls-1{fill:#3a3a3a;}.cls-2,.cls-3{fill:#13ff00;}.cls-3{font-size:65px;font-family:OCRAStd, OCR A Std;}</style></defs><title>Plan de travail 2</title><circle class="cls-1" cx="145.5" cy="145.57" r="145.5"/><path class="cls-2" d="M110.21,163.94c-4.67,0-7.35-1.87-9.34-5.92l-5.73-11.59a13.94,13.94,0,0,1-1.68-6.54A13.53,13.53,0,0,1,95.2,133l5.73-11.52c2.12-4.3,4.8-6,9.59-6h10.59a2.92,2.92,0,0,1,3.12,3.11,3,3,0,0,1-3.12,3.12h-10.4c-2.68,0-3.11.24-4.3,2.61L101,135.16a9.63,9.63,0,0,0-1.3,4.73,8.73,8.73,0,0,0,1.3,4.3l5.3,10.78c1.24,2.55,1.87,2.74,4.67,2.74h10.15a2.92,2.92,0,0,1,3.12,3.11,3,3,0,0,1-3.12,3.12Z"/><path class="cls-2" d="M178.32,134.72l1.06-1.05c2-2,3.18-3.31,5.92-3.31h6.6c1.56,0,2.93.88,4.42,2.12l2.06,1.75c2.36,2.05,3.24,3.73,3.24,6.91v12c0,3.18-.88,4.86-3.24,6.92l-2.06,1.74a8.12,8.12,0,0,1-4.67,2.12h-6.17c-2.42,0-4.11-1.5-5.79-3.06l-1.37-1.3V160c0,1.93-.62,4-3,4-2.55,0-3-2.12-3-4.18V122.14c0-2,.44-4.11,3-4.11s3,2.06,3,4.11Zm0,14.83a4.11,4.11,0,0,0,1.81,4l3.42,2.93c.75.63,1.68,1.5,2.31,1.5h4.54a2.68,2.68,0,0,0,1.87-.56l2.62-2.18c.68-.56.75-2,.75-3.18V141.45a3.19,3.19,0,0,0-.81-2.49l-2.74-2.12a2.13,2.13,0,0,0-1.44-.5h-4.17A4,4,0,0,0,184,137.4l-3.86,3.37a4.16,4.16,0,0,0-1.81,3.55Z"/><path class="cls-2" d="M223.87,163.94c-2.49,0-3.49,0-5.36-1.62L216,160.08c-2.37-2.12-3.05-3.49-3.05-6.73V141.83c0-3.18.43-5.05,2.92-7.17l2.12-1.8c2.8-2.43,4.17-2.5,6.6-2.5H230c2.93,0,4.3.32,6.61,2.18l2.43,1.93c2.74,2.19,3.11,4.49,3.11,7.79v4.8c0,3.42-.56,4.42-4.11,4.42H218.88v2a2.94,2.94,0,0,0,.88,1.75l1.49,1.62c.81.87,2,1.12,4,1.12h12.83c2,0,4.11.43,4.11,3s-2.37,3-4.11,3Zm-5-18.44H236.2v-3.61c0-1.12.06-2.06-.75-2.81l-2.3-2a4.29,4.29,0,0,0-2.87-.75h-5a4.78,4.78,0,0,0-3.05.69l-2.06,1.49c-.75.56-1.25,1-1.25,2.74Z"/><path class="cls-2" d="M155.78,138.17v-3.42c0-2.06.44-4.11,3-4.11s3,2.05,3,4.11v2.43A7.89,7.89,0,0,1,161,141L145.94,173.8c-1.31,2.81-2,3.12-4.73,3.12H136.6c-1.74,0-4.11-.38-4.11-3s2.12-3,4.11-3h4.11l4.42-9.16h-.31c-2.49,0-2.61-1.12-3.55-3.18l-7.35-16.25a11.66,11.66,0,0,1-1.43-4.92v-2.68c0-2.06.43-4.11,3-4.11s3,2.05,3,4.11v3.42l8,17.63h1.31Z"/><path class="cls-2" d="M121.56,189.23h-1.68c-1.74,0-4.11-.38-4.11-3s2.12-3,4.11-3h1.68v-.81c0-3.43.19-5.92,2.87-8.54,2.86-2.74,5.54-3,9.22-3h4c2.06,0,4.36.19,4.36,3,0,2.56-2.05,3-4.11,3h-4.67c-4.05,0-5.73.82-5.73,5.18v1.18h5.3c2,0,4.11.43,4.11,3s-2.37,3-4.11,3h-5.3v23.48c0,2.06-.44,4.11-3,4.11s-3-2-3-4.11Z"/><path class="cls-2" d="M159.84,216.82c-2.49,0-3.49,0-5.36-1.62L151.93,213c-2.37-2.12-3.05-3.49-3.05-6.73V194.71c0-3.18.43-5.05,2.93-7.16l2.11-1.81c2.81-2.43,4.18-2.49,6.61-2.49H166c2.93,0,4.3.31,6.6,2.18l2.43,1.93c2.74,2.18,3.11,4.48,3.11,7.78v4.8c0,3.43-.56,4.42-4.11,4.42H154.86v2a2.88,2.88,0,0,0,.87,1.74l1.49,1.62c.81.87,2,1.12,4,1.12H174c2,0,4.11.44,4.11,3s-2.36,3-4.11,3Zm-5-18.44h17.31v-3.61c0-1.12.07-2.05-.74-2.8l-2.31-2a4.22,4.22,0,0,0-2.86-.75h-5a4.85,4.85,0,0,0-3.05.68l-2.06,1.5c-.74.56-1.24,1-1.24,2.74Z"/><path class="cls-2" d="M201.4,216.82c-2.49,0-3.48,0-5.35-1.62L193.49,213c-2.36-2.12-3.05-3.49-3.05-6.73V194.71c0-3.18.44-5.05,2.93-7.16l2.12-1.81c2.8-2.43,4.17-2.49,6.6-2.49h5.48c2.93,0,4.3.31,6.6,2.18l2.43,1.93c2.74,2.18,3.12,4.48,3.12,7.78v4.8c0,3.43-.56,4.42-4.11,4.42H196.42v2a2.93,2.93,0,0,0,.87,1.74l1.5,1.62c.81.87,2,1.12,4,1.12h12.84c2,0,4.11.44,4.11,3s-2.37,3-4.11,3Zm-5-18.44h17.32v-3.61c0-1.12.06-2.05-.75-2.8l-2.3-2a4.25,4.25,0,0,0-2.87-.75h-5a4.85,4.85,0,0,0-3.05.68l-2.05,1.5c-.75.56-1.25,1-1.25,2.74Z"/><path class="cls-2" d="M254.17,134.92c0-2.18.25-4.42,3-4.42,2.37,0,3,2,3,4v2.43l4.67-3.87c1.69-1.37,3.43-2.55,5.3-2.55h4.8a7.89,7.89,0,0,1,5.85,2.37,8.75,8.75,0,0,1,2.68,6.79c0,2.05-.38,4.17-2.93,4.17-2.18,0-3-1.74-3-3.67a3.93,3.93,0,0,0-.62-2.62c-.75-1.06-2.18-1.06-3.62-1.06h-1.74a4.65,4.65,0,0,0-3,1.43l-8.35,6.92V160c0,2.06-.43,4.11-3,4.11s-3-2-3-4.11Z"/><path class="cls-2" d="M247.29,183.25c2.06,0,3.74,1.12,5.92,3.3l1,1.06v-29c0-2.06.43-4.12,3-4.12s3,2.06,3,4.12v54c0,2-.44,4.17-3,4.17-2.37,0-3-2-3-4v-.38l-1.31,1.31c-1.87,1.74-3.92,3-5.73,3h-5.79a9.18,9.18,0,0,1-5.11-2.12L234.21,213c-2.49-2.12-3.3-3.74-3.3-6.91V194c0-3.17.81-4.79,3.3-6.91l2.06-1.74a7.5,7.5,0,0,1,5.73-2.12Zm-10.4,20.43c0,1.68,0,3.8.94,4.55l1.8,1.43a4,4,0,0,0,2.24,1.18h4.24a5,5,0,0,0,2.93-1.49l3.42-2.93c.88-.75,1.75-1.49,1.75-2.62v-7.53c0-1.13-.87-1.87-1.75-2.62L249,190.72a5,5,0,0,0-2.93-1.49h-4.24a4,4,0,0,0-2.24,1.18l-1.8,1.43c-.94.75-.94,2.87-.94,4.55Z"/><path class="cls-2" d="M193.49,177.53H177.33a2.73,2.73,0,0,1,0-5.46h16.16a2.73,2.73,0,0,1,0,5.46Z"/><text class="cls-3" transform="translate(36.71 170.91)">&gt;</text></svg>